<?xml version="1.0" encoding="UTF-8"?>
<svg id="Layer_1" data-name="Layer 1" xmlns="http://www.w3.org/2000/svg" viewBox="0 0 1377.79 486.4">
  <defs>
    <style>
      .cls-1 {
        fill: none;
      }

      .cls-2 {
        fill: #528264;
      }

      .cls-3 {
        fill: #ff6d4b;
      }

      .cls-4 {
        fill: #006b3d;
      }
    </style>
  </defs>
  <g>
    <path class="cls-4" d="M255.45,146.72c-4.24-2.68-10.35-1.59-13.82,1.03-2.99,2.26-4.8,5.31-6.14,7.55-9.13,15.32-17.28,32.82-25.67,55.06-6.92,18.36-12.96,37.01-18.54,54.53-3.19,10.01-4.03,13.09-5.85,19.82l-2.13,7.79c-.79,2.85-1.43,5.74-2.07,8.81l-.92,4.22c-.52,2.29-.02,4.65,1.64,6.93.93,1.55,2.65,4.43,6.18,5.7l.05.02c.97.34,2.03.52,3.1.52,3.2,0,5.98-1.57,8.03-2.96,2.17-1.45,3.77-3.74,4.76-6.81,1.73-5.39,3.42-10.68,4.97-16.09l3.44-12.32c1.81-6.6,3.14-11.38,6.25-21.39,4.37-14.08,8.69-26.31,13.18-37.42,4.71-11.65,10.08-23.35,15.27-34.66l3.56-7.76c1.19-2.58,2.51-5.16,4.16-8.38,1.61-3.15,3.27-6.41,4.76-9.73,2.12-4.82.12-11.72-4.2-14.47Z"/>
    <path class="cls-4" d="M813.59,109v-.03c-.34-2.07-2.02-7.03-10.27-8.29-2.42-.41-4.59-.05-6.49.23-2.51.34-5.03.75-7.53,1.16-4.71.76-9.58,1.55-14.2,1.79-22.46,1.11-24.4,1.96-46.5,2.79l-13.53.51c-2.82.11-5.68.08-9.32.06l-4.14-.02c-1.29-5.46-5.14-9.39-10.47-10.31-5.4-.97-12.77,1.22-15.74,10.98-26.22-.12-58.92.1-89.89,3.83-7.92.94-15.5,3.05-23.91,5.37l-3.65,1.01c-4.05,1.09-6.9,3.88-9.39,6.77-2.77,3.26-3.75,8.24-2.36,12.13,1.95,5.48,8.46,7.18,12.45,6.58,2.04-.28,4.04-.74,5.98-1.18,1.85-.43,3.58-.85,5.33-1.03l5.58-.57c11.88-1.25,24.15-2.54,36.18-3.26,13.19-.8,26.66-1.19,39.8-1.56l8.19-.24c3.44-.09,6.98-.08,10.31-.09-.49,6.56-.85,10.93-1.09,12.79l-2.74,15.49c-.97,5.61-1.96,11.21-2.98,16.82l-1.37,7.61c-1.8,9.98-3.65,20.26-5.66,30.34-2.23,11.15-4.71,22.56-7.59,34.86l-.69,2.98c-2.72,11.7-5.53,23.79-8.84,35.58-3.81,13.52-7.58,25.24-11.73,36.4-4.22,11.31-7.87,21.1-17.64,26.06-5.39,2.73-6.49,9.77-5.53,13.69,1.1,4.43,4.36,7.97,8.74,9.5,1.51.52,3.08.78,4.67.78,3.4,0,6.81-1.2,9.59-3.37,5.63-4.39,9.82-8.69,12.82-13.11,11.02-16.27,17.08-34.34,21.98-51.43,5.99-20.89,11.11-42.11,16.25-63.83,2.46-10.4,4.48-21.03,6.43-31.31l1.94-10.06c2.02-10.42,3.7-19.59,5.13-28,2.15-12.66,4.2-25.36,6.07-37.73.16-1,.24-2.06.22-2.73.08-.7.17-1.38.26-2.03,1.65.01,3.42.02,4.93.05l23.96-.54c19.26-.42,18.22-.86,37.75-1.79,9.5-.43,18.73-2.28,27.65-4.07l5.48-1.09c4.76-.92,8.72-3.71,11.64-6.06,3.84-3.08,4.55-8.41,3.93-12.38Z"/>
    <g>
      <path class="cls-2" d="M806.85,236.37v22.05c0,3.7.64,6.27,1.91,7.72,1.27,1.45,3.91,2.18,7.93,2.18h1.67v6.61h-43.5v-6.61h1.19c4.01,0,6.62-.75,7.84-2.23s1.82-4.04,1.82-7.66v-47.91c0-3.69-.63-6.27-1.88-7.72-1.25-1.45-3.84-2.18-7.78-2.18h-1.43v-6.5h67.76l.54,21.39h-6.73c-.99-3.65-2.26-6.61-3.81-8.88-1.55-2.26-3.16-3.73-4.83-4.41-1.67-.68-4.21-1.01-7.63-1.01h-13.05v27.89h6.38c3.02,0,5.12-.65,6.29-1.94,1.17-1.29,1.9-3.94,2.17-7.96h6.67v27.77h-6.67c-.2-4.33-.89-7.18-2.08-8.55-1.19-1.37-3.36-2.06-6.5-2.06h-6.26Z"/>
      <path class="cls-2" d="M845.69,250.38c0-8.18,2.9-14.6,8.7-19.25s12.81-6.97,21.04-6.97,15.02,2.26,20.98,6.76c5.96,4.51,8.94,11.02,8.94,19.52s-2.92,14.49-8.76,19.28c-5.84,4.79-12.91,7.18-21.22,7.18s-15.08-2.27-20.92-6.82c-5.84-4.55-8.76-11.11-8.76-19.7ZM866.14,249.78c0,7.63.71,12.96,2.12,16,1.41,3.04,3.86,4.56,7.36,4.56,2.82,0,5.08-1.27,6.76-3.81,1.69-2.54,2.53-7.96,2.53-16.27,0-7.55-.75-12.66-2.26-15.35-1.51-2.68-3.89-4.02-7.15-4.02-2.58,0-4.79,1.14-6.62,3.43-1.83,2.29-2.74,7.44-2.74,15.46Z"/>
      <path class="cls-2" d="M946.58,236.43c2.3-4.09,4.93-7.16,7.87-9.21,2.94-2.05,6.18-3.07,9.71-3.07s5.94,1.06,7.69,3.19c1.75,2.13,2.62,4.44,2.62,6.94,0,2.34-.7,4.35-2.09,6.02-1.39,1.67-3.34,2.5-5.84,2.5-1.35,0-2.46-.26-3.34-.77-.87-.52-2.03-1.59-3.46-3.22-1.43-1.59-2.98-2.38-4.65-2.38-2.58,0-4.52,1.58-5.81,4.74-1.29,3.16-1.94,7.9-1.94,14.21v5.3c0,2.94.46,5,1.37,6.17.91,1.17,3.02,1.76,6.32,1.76h1.19v6.32h-36.17v-6.32c3.46,0,5.64-.58,6.56-1.73.91-1.15,1.37-3.22,1.37-6.2v-17.04c0-3.02-.47-5.1-1.4-6.23s-3.15-1.7-6.64-1.7v-6.32l24.73-5.24c1.11,3.22,1.75,7.31,1.91,12.28Z"/>
      <path class="cls-2" d="M1097.09,248.05l-.36,26.88h-73.66v-6.61h1.19c4.05,0,6.68-.75,7.9-2.23s1.82-4.04,1.82-7.66v-47.79c0-3.69-.64-6.27-1.91-7.72-1.27-1.45-3.87-2.18-7.81-2.18h-1.19v-6.61h43.33v6.61h-1.61c-4.05,0-6.68.75-7.9,2.23s-1.82,4.04-1.82,7.66v46.13c0,3.46.2,5.74.6,6.85.4,1.11,1.44,2.08,3.13,2.89,1.69.81,4.64,1.22,8.85,1.22,7.07,0,12.36-1.78,15.85-5.33,3.5-3.56,5.88-8.33,7.15-14.33h6.44Z"/>
      <path class="cls-2" d="M1141.5,224.15v36.53c0,3.02.48,5.1,1.43,6.23.95,1.13,3.18,1.7,6.67,1.7v6.32h-36.47v-6.32h1.37c3.38,0,5.51-.6,6.41-1.79.89-1.19,1.34-3.24,1.34-6.14v-17.76c0-2.94-.46-5-1.37-6.17-.91-1.17-3.04-1.76-6.38-1.76h-1.37v-6.32l28.37-4.53ZM1121.41,203.47c0-2.94,1.05-5.47,3.16-7.6,2.1-2.12,4.63-3.19,7.57-3.19s5.5,1.05,7.57,3.16c2.07,2.11,3.1,4.65,3.1,7.63s-1.04,5.52-3.13,7.63c-2.09,2.11-4.6,3.16-7.54,3.16s-5.61-1.08-7.66-3.25c-2.05-2.17-3.07-4.68-3.07-7.54Z"/>
      <path class="cls-2" d="M1195.68,232.56v28.13c0,2.94.46,5,1.37,6.17.91,1.17,3.02,1.76,6.32,1.76h3.16v6.32h-39.93v-6.32h2.09c3.38,0,5.5-.6,6.38-1.79s1.31-3.24,1.31-6.14v-28.13h-9.77v-6.44h9.77c0-6.36.24-11.16.71-14.42.48-3.26,1.79-6.37,3.93-9.33,2.15-2.96,5.16-5.32,9.06-7.09,3.89-1.77,8.56-2.65,14-2.65,6.28,0,11.03,1.07,14.24,3.22,3.22,2.15,4.83,4.89,4.83,8.22,0,2.34-.86,4.38-2.59,6.11-1.73,1.73-3.8,2.59-6.23,2.59-4.69,0-7.79-2.98-9.3-8.94-.71-2.94-2.17-4.41-4.35-4.41-1.79,0-3.07.91-3.84,2.74-.78,1.83-1.16,4.99-1.16,9.48v14.48h10.85v6.44h-10.85Z"/>
      <path class="cls-2" d="M1241.2,249.96c0,6.48,1.1,11.34,3.31,14.6,2.2,3.26,5.51,4.89,9.92,4.89,4.69,0,9-2.38,12.93-7.15l5.54,3.34c-2.26,3.26-5.51,5.95-9.74,8.08s-8.91,3.19-14.03,3.19c-7.87,0-14.6-2.39-20.2-7.18-5.6-4.79-8.4-11.25-8.4-19.4s2.71-14.54,8.13-19.19,11.95-6.97,19.58-6.97,13.95,2.14,18.86,6.41c4.91,4.27,7.36,10.74,7.36,19.4h-33.25ZM1241.14,243.94h15.08c-.24-8.78-2.8-13.17-7.69-13.17-2.46,0-4.31,1.09-5.54,3.28-1.23,2.19-1.85,5.48-1.85,9.89Z"/>
    </g>
    <path class="cls-2" d="M861.28,70.53c4.1,0,8.07,1.04,11.92,3.11,3.85,2.07,6.89,5.05,9.12,8.93,2.23,3.88,3.35,7.99,3.35,12.32,0,6.73-2.38,12.48-7.15,17.25-4.76,4.76-10.51,7.15-17.25,7.15s-12.42-2.39-17.2-7.16c-4.77-4.78-7.16-10.52-7.16-17.23s2.39-12.48,7.16-17.23c4.78-4.75,10.51-7.13,17.2-7.13ZM861.28,73.58c-3.67,0-7.16.92-10.48,2.77-3.32,1.84-5.96,4.44-7.9,7.78-1.95,3.34-2.92,6.93-2.92,10.75,0,5.86,2.09,10.88,6.27,15.05,4.18,4.17,9.19,6.25,15.03,6.25s10.88-2.08,15.05-6.25c4.17-4.17,6.25-9.18,6.25-15.05,0-3.82-.97-7.41-2.9-10.75-1.94-3.34-4.56-5.94-7.88-7.78-3.32-1.84-6.83-2.77-10.51-2.77ZM848.26,80.73h12.44c3.07,0,5.36.22,6.87.67,1.51.45,2.78,1.3,3.8,2.56,1.02,1.26,1.53,2.69,1.53,4.29,0,1.81-.51,3.3-1.53,4.48-1.02,1.18-2.56,2.06-4.62,2.63l4.71,8.59c1.19,2.18,2.39,3.31,3.61,3.4v1.17h-8.31l-7.04-12.64h-1.58v6.8c0,1.95.26,3.19.77,3.74.51.55,1.63.86,3.35.93v1.17h-14.53v-1.17c1.31,0,2.23-.25,2.78-.74.55-.49.83-1.79.83-3.9v-16.25c0-1.86-.2-3.05-.6-3.57-.4-.53-1.22-.85-2.46-.96v-1.2ZM858.12,94.13c.78.11,1.39.17,1.82.17,1.53,0,2.84-.54,3.93-1.63,1.09-1.09,1.63-2.66,1.63-4.72,0-1.9-.5-3.33-1.51-4.28-1.01-.95-2.53-1.43-4.57-1.43h-1.31v11.89Z"/>
    <path class="cls-4" d="M543.47,269.71c.94-.02,14.56-.6,16.02-13.57,1.38-12.26-14.73-12.73-17.56-12.72-5.1.25-10.14.58-15.11,1.02-15.32,1.37-16,1.46-24.9,2.68l-15,1.99c-9.06,1.21-18.24,2.57-27.16,3.9l-1.42.22c-10.38,1.55-21.11,3.15-31.66,4.51-13.19,1.7-19.39,2.72-33.75-.92-2.32-.59-3.54-1.49-3.92-2.15-.09-.17-.37-.66.05-2.06.5-1.69,1.19-3.9,2.16-6,.96-2.11,1.98-4.19,3.03-6.35,1.65-3.41,2.73-6.62,4.22-10.18,1.68-3.97-.34-10.39-3.99-14.06-2.5-2.51-12.71-2.98-15.31-3.12.71-1.05,1.42-2.12,2.1-3.18,6-9.39,5.39-17.17,3.82-22.04-1.81-5.62-6.06-9.86-11.64-11.65-3.5-1.13-7.25-1.26-10.92-.44-1.83-13.1-6.6-24.46-14.44-34.53-9.65-12.41-22.4-21.02-39.96-27.08-4.88-1.82-14.31-3.85-19.29-4.85-.88-.2-1.8-.4-2.81-.57-23.93-3.75-47.73-.82-70.74,8.83-19.24,8.05-36.08,21.01-50.03,38.47-5.84,7.33-12.24,16.28-15.34,27.29-1.53,5.4-2.98,13.49,2.04,21.26,1.68,2.6,6.64,8.24,16.66,4.76,3.22-1.13,5.73-3.4,7.12-6.42,1.36-3.02,1.39-6.44.11-9.6-.57-1.43,0-2.97,1.62-6.72,3.49-7.98,9.5-14.74,15.36-20.97,13.25-14.11,29.21-23.67,47.43-28.42,13.08-3.41,27.13-3.87,43.15-1.44,5.68.71,12.55,2.9,15.47,3.9l.79.78h1.22c1.29.53,2.65,1.06,4.33,1.71l2.34.93c17.81,7.24,28.66,23.17,29.04,42.62.37,19.38-5.08,37.56-16.68,55.58-12.6,19.59-30.04,36.62-54.85,53.61-17.43,11.92-34.18,21.03-51.23,27.84-9.38,3.75-19.6,6.99-28.65,9.85l-7.52,2.41c-5.75,1.85-41.59,12.89-60.61,18.33-12.43,3.56-23.17,6.62-26.9,7.75-7.54,2.28-11.25,8.55-9.22,15.62,1.62,5.65,6.47,9.16,12.66,9.16.74,0,1.48-.05,2.25-.15,3.74-.46,7.09-1.08,10.28-1.88,23.77-5.98,103.78-29.52,124.24-38.74,32.46-14.63,59.2-32.04,81.78-53.24,16.52-15.51,28.64-31.11,37.04-47.64.62-1.22,1.23-2.45,1.85-3.69,4.42,2.86,20.83-7.95,21.21-4.54-1.66,6.9-13.85,23.12-7.04,33.04,5.76,8.43,14.53,11.3,20.61,12.73,16.88,3.97,27.98,4.34,43.81,2.43,7.64-.93,15.34-2.2,23.4-3.53,5.14-.85,10.43-1.73,15.64-2.47,6.25-.88,9.58-1.4,12.3-1.83,4.47-.7,7.25-1.13,19.09-2.53l3.73-.44c13-1.53,26.45-3.11,39.65-3.5.02,0,.04,0,.06,0ZM356.33,213.38c.34-9.39,3.8-15.94,10.9-20.88.49-.34,1.66-.51,2.7-.66.24.6.62,1.57.6,1.83-2.62,6.86-7.18,13.2-14.2,19.7Z"/>
    <path class="cls-3" d="M610.51,271.28s0,0,0,0c4.92-2.62,9.87-8.63,11.03-13.39,1.53-6.27.3-11.58-3.46-14.97-4.68-4.21-12.95-5.11-22.69-2.48-1.58.43-3.1,1.43-4.19,2.76l-11.87,14.45c-1.67,2.03-2.13,4.53-1.15,6.3,2.86,5.2,13.39,9.39,22.66,9.39,3.58,0,6.98-.63,9.67-2.06Z"/>
    <path class="cls-2" d="M577.78,352.65c-72.95,10.93-147.97,23.08-220.11,37.6-21.25,4.46-42.75,9.72-63.96,14.19-29.94,6.13-60.07,11.41-90.21,16.62-13.06,2.13-25.98,4.4-39.17,6.02,0,0-.54-1.82-.54-1.82,40.16-18.35,82.81-31.01,125.93-40.17,33.97-6.69,70.1-11.06,104.37-16.06,52-7.2,104.86-12.24,157.22-16.42,0,0,26.27-1.85,26.27-1.85l.2,1.89h0Z"/>
    <path class="cls-2" d="M675.49,341.65c75.95-7.77,156.58-14.14,232.79-18.62,64.79-3.52,129.6-7.12,194.47-8.91,64.84-1.05,129.95-.39,194.66,4.27,0,0-.02,1.19-.02,1.19-64.66,3.29-129.66,5.36-194.39,6.88-37.36.77-79.27.9-116.63,1.95-50.78,1.24-104.62,3.16-155.45,5.63-51.82,2.11-103.57,5.5-155.35,8.8l-.1-1.18h0Z"/>
  </g>
  <rect class="cls-1" width="1377.79" height="486.4"/>
</svg>